<mxfile host="app.diagrams.net" modified="2023-06-22T08:10:32.093Z" agent="Mozilla/5.0 (Windows NT 10.0; Win64; x64) AppleWebKit/537.36 (KHTML, like Gecko) Chrome/114.0.0.0 Safari/537.36 Edg/114.0.1823.51" etag="YDCspSsczkz8XdPO0e6m" version="21.5.0" type="github">
  <diagram name="第 1 页" id="VEAvsWOh31q733JoIFz7">
    <mxGraphModel dx="1379" dy="756" grid="1" gridSize="10" guides="1" tooltips="1" connect="1" arrows="1" fold="1" page="1" pageScale="1" pageWidth="827" pageHeight="1169" math="0" shadow="0">
      <root>
        <mxCell id="0" />
        <mxCell id="1" parent="0" />
        <mxCell id="iNCdmygWWekqGMJKnlvo-107" value="" style="curved=1;endArrow=classic;html=1;rounded=0;entryX=0;entryY=0.5;entryDx=0;entryDy=0;exitX=1;exitY=0.5;exitDx=0;exitDy=0;strokeWidth=2;" edge="1" parent="1" source="iNCdmygWWekqGMJKnlvo-140" target="iNCdmygWWekqGMJKnlvo-124">
          <mxGeometry width="50" height="50" relative="1" as="geometry">
            <mxPoint x="116" y="430" as="sourcePoint" />
            <mxPoint x="326" y="430" as="targetPoint" />
            <Array as="points">
              <mxPoint x="446" y="390" />
            </Array>
          </mxGeometry>
        </mxCell>
        <mxCell id="iNCdmygWWekqGMJKnlvo-153" style="edgeStyle=orthogonalEdgeStyle;rounded=0;orthogonalLoop=1;jettySize=auto;html=1;entryX=0;entryY=0.5;entryDx=0;entryDy=0;strokeWidth=2;" edge="1" parent="1" source="iNCdmygWWekqGMJKnlvo-114" target="iNCdmygWWekqGMJKnlvo-122">
          <mxGeometry relative="1" as="geometry" />
        </mxCell>
        <mxCell id="iNCdmygWWekqGMJKnlvo-114" value="" style="ellipse;whiteSpace=wrap;html=1;aspect=fixed;fillColor=#ffe6cc;strokeColor=#d79b00;" vertex="1" parent="1">
          <mxGeometry x="446" y="540" width="20" height="20" as="geometry" />
        </mxCell>
        <mxCell id="iNCdmygWWekqGMJKnlvo-152" style="edgeStyle=orthogonalEdgeStyle;rounded=0;orthogonalLoop=1;jettySize=auto;html=1;entryX=0;entryY=0.5;entryDx=0;entryDy=0;strokeWidth=2;" edge="1" parent="1" source="iNCdmygWWekqGMJKnlvo-116" target="iNCdmygWWekqGMJKnlvo-123">
          <mxGeometry relative="1" as="geometry" />
        </mxCell>
        <mxCell id="iNCdmygWWekqGMJKnlvo-161" style="edgeStyle=orthogonalEdgeStyle;rounded=0;orthogonalLoop=1;jettySize=auto;html=1;exitX=0.5;exitY=1;exitDx=0;exitDy=0;entryX=0.5;entryY=0;entryDx=0;entryDy=0;strokeWidth=2;" edge="1" parent="1" source="iNCdmygWWekqGMJKnlvo-116" target="iNCdmygWWekqGMJKnlvo-114">
          <mxGeometry relative="1" as="geometry" />
        </mxCell>
        <mxCell id="iNCdmygWWekqGMJKnlvo-116" value="" style="ellipse;whiteSpace=wrap;html=1;aspect=fixed;fillColor=#d5e8d4;strokeColor=#82b366;" vertex="1" parent="1">
          <mxGeometry x="446" y="480" width="20" height="20" as="geometry" />
        </mxCell>
        <mxCell id="iNCdmygWWekqGMJKnlvo-148" style="edgeStyle=orthogonalEdgeStyle;rounded=0;orthogonalLoop=1;jettySize=auto;html=1;exitX=1;exitY=0.5;exitDx=0;exitDy=0;entryX=0;entryY=0.5;entryDx=0;entryDy=0;strokeWidth=2;" edge="1" parent="1" source="iNCdmygWWekqGMJKnlvo-117" target="iNCdmygWWekqGMJKnlvo-124">
          <mxGeometry relative="1" as="geometry" />
        </mxCell>
        <mxCell id="iNCdmygWWekqGMJKnlvo-160" style="edgeStyle=orthogonalEdgeStyle;rounded=0;orthogonalLoop=1;jettySize=auto;html=1;exitX=0.5;exitY=1;exitDx=0;exitDy=0;entryX=0.5;entryY=0;entryDx=0;entryDy=0;strokeWidth=2;" edge="1" parent="1" source="iNCdmygWWekqGMJKnlvo-117" target="iNCdmygWWekqGMJKnlvo-116">
          <mxGeometry relative="1" as="geometry" />
        </mxCell>
        <mxCell id="iNCdmygWWekqGMJKnlvo-117" value="" style="ellipse;whiteSpace=wrap;html=1;aspect=fixed;fillColor=#f8cecc;strokeColor=#b85450;" vertex="1" parent="1">
          <mxGeometry x="446" y="420" width="20" height="20" as="geometry" />
        </mxCell>
        <mxCell id="iNCdmygWWekqGMJKnlvo-163" style="edgeStyle=orthogonalEdgeStyle;rounded=0;orthogonalLoop=1;jettySize=auto;html=1;exitX=0.5;exitY=0;exitDx=0;exitDy=0;entryX=0.5;entryY=1;entryDx=0;entryDy=0;strokeWidth=2;" edge="1" parent="1" source="iNCdmygWWekqGMJKnlvo-122" target="iNCdmygWWekqGMJKnlvo-123">
          <mxGeometry relative="1" as="geometry" />
        </mxCell>
        <mxCell id="iNCdmygWWekqGMJKnlvo-169" style="edgeStyle=orthogonalEdgeStyle;rounded=0;orthogonalLoop=1;jettySize=auto;html=1;strokeWidth=2;" edge="1" parent="1" source="iNCdmygWWekqGMJKnlvo-122">
          <mxGeometry relative="1" as="geometry">
            <mxPoint x="546" y="550" as="targetPoint" />
          </mxGeometry>
        </mxCell>
        <mxCell id="iNCdmygWWekqGMJKnlvo-122" value="" style="ellipse;whiteSpace=wrap;html=1;aspect=fixed;fillColor=#ffe6cc;strokeColor=#d79b00;" vertex="1" parent="1">
          <mxGeometry x="496" y="540" width="20" height="20" as="geometry" />
        </mxCell>
        <mxCell id="iNCdmygWWekqGMJKnlvo-164" style="edgeStyle=orthogonalEdgeStyle;rounded=0;orthogonalLoop=1;jettySize=auto;html=1;strokeWidth=2;" edge="1" parent="1" source="iNCdmygWWekqGMJKnlvo-123" target="iNCdmygWWekqGMJKnlvo-124">
          <mxGeometry relative="1" as="geometry" />
        </mxCell>
        <mxCell id="iNCdmygWWekqGMJKnlvo-168" style="edgeStyle=orthogonalEdgeStyle;rounded=0;orthogonalLoop=1;jettySize=auto;html=1;exitX=1;exitY=0.5;exitDx=0;exitDy=0;strokeWidth=2;" edge="1" parent="1" source="iNCdmygWWekqGMJKnlvo-123">
          <mxGeometry relative="1" as="geometry">
            <mxPoint x="546" y="490" as="targetPoint" />
          </mxGeometry>
        </mxCell>
        <mxCell id="iNCdmygWWekqGMJKnlvo-123" value="" style="ellipse;whiteSpace=wrap;html=1;aspect=fixed;fillColor=#d5e8d4;strokeColor=#82b366;" vertex="1" parent="1">
          <mxGeometry x="496" y="480" width="20" height="20" as="geometry" />
        </mxCell>
        <mxCell id="iNCdmygWWekqGMJKnlvo-165" style="edgeStyle=orthogonalEdgeStyle;rounded=0;orthogonalLoop=1;jettySize=auto;html=1;entryX=0.5;entryY=1;entryDx=0;entryDy=0;strokeWidth=2;" edge="1" parent="1" source="iNCdmygWWekqGMJKnlvo-124" target="iNCdmygWWekqGMJKnlvo-125">
          <mxGeometry relative="1" as="geometry" />
        </mxCell>
        <mxCell id="iNCdmygWWekqGMJKnlvo-167" style="edgeStyle=orthogonalEdgeStyle;rounded=0;orthogonalLoop=1;jettySize=auto;html=1;strokeWidth=2;" edge="1" parent="1" source="iNCdmygWWekqGMJKnlvo-124">
          <mxGeometry relative="1" as="geometry">
            <mxPoint x="546" y="430" as="targetPoint" />
          </mxGeometry>
        </mxCell>
        <mxCell id="iNCdmygWWekqGMJKnlvo-124" value="" style="ellipse;whiteSpace=wrap;html=1;aspect=fixed;fillColor=#f8cecc;strokeColor=#b85450;" vertex="1" parent="1">
          <mxGeometry x="496" y="420" width="20" height="20" as="geometry" />
        </mxCell>
        <mxCell id="iNCdmygWWekqGMJKnlvo-166" style="edgeStyle=orthogonalEdgeStyle;rounded=0;orthogonalLoop=1;jettySize=auto;html=1;strokeWidth=2;" edge="1" parent="1" source="iNCdmygWWekqGMJKnlvo-125">
          <mxGeometry relative="1" as="geometry">
            <mxPoint x="546" y="370" as="targetPoint" />
          </mxGeometry>
        </mxCell>
        <mxCell id="iNCdmygWWekqGMJKnlvo-125" value="" style="ellipse;whiteSpace=wrap;html=1;aspect=fixed;fillColor=#dae8fc;strokeColor=#6c8ebf;" vertex="1" parent="1">
          <mxGeometry x="496" y="360" width="20" height="20" as="geometry" />
        </mxCell>
        <mxCell id="iNCdmygWWekqGMJKnlvo-162" style="edgeStyle=orthogonalEdgeStyle;rounded=0;orthogonalLoop=1;jettySize=auto;html=1;strokeWidth=2;" edge="1" parent="1" source="iNCdmygWWekqGMJKnlvo-126" target="iNCdmygWWekqGMJKnlvo-122">
          <mxGeometry relative="1" as="geometry" />
        </mxCell>
        <mxCell id="iNCdmygWWekqGMJKnlvo-170" style="edgeStyle=orthogonalEdgeStyle;rounded=0;orthogonalLoop=1;jettySize=auto;html=1;exitX=1;exitY=0.5;exitDx=0;exitDy=0;strokeWidth=2;" edge="1" parent="1" source="iNCdmygWWekqGMJKnlvo-126">
          <mxGeometry relative="1" as="geometry">
            <mxPoint x="546" y="610" as="targetPoint" />
          </mxGeometry>
        </mxCell>
        <mxCell id="iNCdmygWWekqGMJKnlvo-126" value="" style="ellipse;whiteSpace=wrap;html=1;aspect=fixed;fillColor=#cdeb8b;strokeColor=#36393d;" vertex="1" parent="1">
          <mxGeometry x="496" y="600" width="20" height="20" as="geometry" />
        </mxCell>
        <mxCell id="iNCdmygWWekqGMJKnlvo-151" style="edgeStyle=orthogonalEdgeStyle;rounded=0;orthogonalLoop=1;jettySize=auto;html=1;entryX=0;entryY=0.5;entryDx=0;entryDy=0;strokeWidth=2;" edge="1" parent="1" source="iNCdmygWWekqGMJKnlvo-138" target="iNCdmygWWekqGMJKnlvo-114">
          <mxGeometry relative="1" as="geometry" />
        </mxCell>
        <mxCell id="iNCdmygWWekqGMJKnlvo-138" value="" style="ellipse;whiteSpace=wrap;html=1;aspect=fixed;" vertex="1" parent="1">
          <mxGeometry x="386" y="540" width="20" height="20" as="geometry" />
        </mxCell>
        <mxCell id="iNCdmygWWekqGMJKnlvo-150" style="edgeStyle=orthogonalEdgeStyle;rounded=0;orthogonalLoop=1;jettySize=auto;html=1;entryX=0;entryY=0.5;entryDx=0;entryDy=0;strokeWidth=2;" edge="1" parent="1" source="iNCdmygWWekqGMJKnlvo-139" target="iNCdmygWWekqGMJKnlvo-116">
          <mxGeometry relative="1" as="geometry" />
        </mxCell>
        <mxCell id="iNCdmygWWekqGMJKnlvo-139" value="" style="ellipse;whiteSpace=wrap;html=1;aspect=fixed;" vertex="1" parent="1">
          <mxGeometry x="386" y="480" width="20" height="20" as="geometry" />
        </mxCell>
        <mxCell id="iNCdmygWWekqGMJKnlvo-147" style="edgeStyle=orthogonalEdgeStyle;rounded=0;orthogonalLoop=1;jettySize=auto;html=1;entryX=0;entryY=0.5;entryDx=0;entryDy=0;strokeWidth=2;" edge="1" parent="1" source="iNCdmygWWekqGMJKnlvo-140" target="iNCdmygWWekqGMJKnlvo-117">
          <mxGeometry relative="1" as="geometry" />
        </mxCell>
        <mxCell id="iNCdmygWWekqGMJKnlvo-140" value="" style="ellipse;whiteSpace=wrap;html=1;aspect=fixed;" vertex="1" parent="1">
          <mxGeometry x="386" y="420" width="20" height="20" as="geometry" />
        </mxCell>
        <mxCell id="iNCdmygWWekqGMJKnlvo-143" style="edgeStyle=orthogonalEdgeStyle;rounded=0;orthogonalLoop=1;jettySize=auto;html=1;exitX=1;exitY=0.5;exitDx=0;exitDy=0;strokeWidth=2;" edge="1" parent="1" source="iNCdmygWWekqGMJKnlvo-141" target="iNCdmygWWekqGMJKnlvo-125">
          <mxGeometry relative="1" as="geometry" />
        </mxCell>
        <mxCell id="iNCdmygWWekqGMJKnlvo-141" value="" style="ellipse;whiteSpace=wrap;html=1;aspect=fixed;" vertex="1" parent="1">
          <mxGeometry x="386" y="360" width="20" height="20" as="geometry" />
        </mxCell>
        <mxCell id="iNCdmygWWekqGMJKnlvo-154" style="edgeStyle=orthogonalEdgeStyle;rounded=0;orthogonalLoop=1;jettySize=auto;html=1;exitX=1;exitY=0.5;exitDx=0;exitDy=0;entryX=0;entryY=0.5;entryDx=0;entryDy=0;strokeWidth=2;" edge="1" parent="1" source="iNCdmygWWekqGMJKnlvo-142" target="iNCdmygWWekqGMJKnlvo-126">
          <mxGeometry relative="1" as="geometry" />
        </mxCell>
        <mxCell id="iNCdmygWWekqGMJKnlvo-142" value="" style="ellipse;whiteSpace=wrap;html=1;aspect=fixed;" vertex="1" parent="1">
          <mxGeometry x="386" y="600" width="20" height="20" as="geometry" />
        </mxCell>
        <mxCell id="iNCdmygWWekqGMJKnlvo-146" value="" style="endArrow=classic;html=1;rounded=0;entryX=0;entryY=0.5;entryDx=0;entryDy=0;strokeWidth=2;" edge="1" parent="1" source="iNCdmygWWekqGMJKnlvo-114" target="iNCdmygWWekqGMJKnlvo-126">
          <mxGeometry width="50" height="50" relative="1" as="geometry">
            <mxPoint x="236" y="680" as="sourcePoint" />
            <mxPoint x="286" y="630" as="targetPoint" />
          </mxGeometry>
        </mxCell>
        <mxCell id="iNCdmygWWekqGMJKnlvo-155" value="" style="curved=1;endArrow=classic;html=1;rounded=0;entryX=0;entryY=0.5;entryDx=0;entryDy=0;exitX=1;exitY=0;exitDx=0;exitDy=0;strokeWidth=2;" edge="1" parent="1" source="iNCdmygWWekqGMJKnlvo-139" target="iNCdmygWWekqGMJKnlvo-123">
          <mxGeometry width="50" height="50" relative="1" as="geometry">
            <mxPoint x="406" y="430" as="sourcePoint" />
            <mxPoint x="516" y="430" as="targetPoint" />
            <Array as="points">
              <mxPoint x="456" y="450" />
            </Array>
          </mxGeometry>
        </mxCell>
        <mxCell id="iNCdmygWWekqGMJKnlvo-157" value="" style="curved=1;endArrow=classic;html=1;rounded=0;entryX=0;entryY=0.5;entryDx=0;entryDy=0;strokeWidth=2;" edge="1" parent="1" target="iNCdmygWWekqGMJKnlvo-122">
          <mxGeometry width="50" height="50" relative="1" as="geometry">
            <mxPoint x="406" y="550" as="sourcePoint" />
            <mxPoint x="506" y="500" as="targetPoint" />
            <Array as="points">
              <mxPoint x="456" y="510" />
            </Array>
          </mxGeometry>
        </mxCell>
        <mxCell id="iNCdmygWWekqGMJKnlvo-159" value="" style="endArrow=classic;html=1;rounded=0;entryX=0;entryY=0;entryDx=0;entryDy=0;exitX=1;exitY=1;exitDx=0;exitDy=0;strokeWidth=2;" edge="1" parent="1" source="iNCdmygWWekqGMJKnlvo-141" target="iNCdmygWWekqGMJKnlvo-117">
          <mxGeometry width="50" height="50" relative="1" as="geometry">
            <mxPoint x="326" y="360" as="sourcePoint" />
            <mxPoint x="419" y="413" as="targetPoint" />
          </mxGeometry>
        </mxCell>
        <mxCell id="iNCdmygWWekqGMJKnlvo-172" style="edgeStyle=orthogonalEdgeStyle;rounded=0;orthogonalLoop=1;jettySize=auto;html=1;entryX=0;entryY=0.5;entryDx=0;entryDy=0;strokeWidth=2;" edge="1" parent="1" source="iNCdmygWWekqGMJKnlvo-173" target="iNCdmygWWekqGMJKnlvo-182">
          <mxGeometry relative="1" as="geometry" />
        </mxCell>
        <mxCell id="iNCdmygWWekqGMJKnlvo-214" style="edgeStyle=orthogonalEdgeStyle;rounded=0;orthogonalLoop=1;jettySize=auto;html=1;exitX=0.5;exitY=1;exitDx=0;exitDy=0;entryX=0.5;entryY=0;entryDx=0;entryDy=0;strokeWidth=2;" edge="1" parent="1" source="iNCdmygWWekqGMJKnlvo-173" target="iNCdmygWWekqGMJKnlvo-208">
          <mxGeometry relative="1" as="geometry" />
        </mxCell>
        <mxCell id="iNCdmygWWekqGMJKnlvo-173" value="" style="ellipse;whiteSpace=wrap;html=1;aspect=fixed;fillColor=#ffe6cc;strokeColor=#d79b00;" vertex="1" parent="1">
          <mxGeometry x="270" y="550" width="20" height="20" as="geometry" />
        </mxCell>
        <mxCell id="iNCdmygWWekqGMJKnlvo-174" style="edgeStyle=orthogonalEdgeStyle;rounded=0;orthogonalLoop=1;jettySize=auto;html=1;entryX=0;entryY=0.5;entryDx=0;entryDy=0;strokeWidth=2;" edge="1" parent="1" source="iNCdmygWWekqGMJKnlvo-176" target="iNCdmygWWekqGMJKnlvo-185">
          <mxGeometry relative="1" as="geometry" />
        </mxCell>
        <mxCell id="iNCdmygWWekqGMJKnlvo-175" style="edgeStyle=orthogonalEdgeStyle;rounded=0;orthogonalLoop=1;jettySize=auto;html=1;exitX=0.5;exitY=1;exitDx=0;exitDy=0;entryX=0.5;entryY=0;entryDx=0;entryDy=0;strokeWidth=2;" edge="1" parent="1" source="iNCdmygWWekqGMJKnlvo-176" target="iNCdmygWWekqGMJKnlvo-173">
          <mxGeometry relative="1" as="geometry" />
        </mxCell>
        <mxCell id="iNCdmygWWekqGMJKnlvo-176" value="" style="ellipse;whiteSpace=wrap;html=1;aspect=fixed;fillColor=#d5e8d4;strokeColor=#82b366;" vertex="1" parent="1">
          <mxGeometry x="270" y="490" width="20" height="20" as="geometry" />
        </mxCell>
        <mxCell id="iNCdmygWWekqGMJKnlvo-177" style="edgeStyle=orthogonalEdgeStyle;rounded=0;orthogonalLoop=1;jettySize=auto;html=1;exitX=1;exitY=0.5;exitDx=0;exitDy=0;entryX=0;entryY=0.5;entryDx=0;entryDy=0;strokeWidth=2;" edge="1" parent="1" source="iNCdmygWWekqGMJKnlvo-179" target="iNCdmygWWekqGMJKnlvo-188">
          <mxGeometry relative="1" as="geometry" />
        </mxCell>
        <mxCell id="iNCdmygWWekqGMJKnlvo-178" style="edgeStyle=orthogonalEdgeStyle;rounded=0;orthogonalLoop=1;jettySize=auto;html=1;exitX=0.5;exitY=1;exitDx=0;exitDy=0;entryX=0.5;entryY=0;entryDx=0;entryDy=0;strokeWidth=2;" edge="1" parent="1" source="iNCdmygWWekqGMJKnlvo-179" target="iNCdmygWWekqGMJKnlvo-176">
          <mxGeometry relative="1" as="geometry" />
        </mxCell>
        <mxCell id="iNCdmygWWekqGMJKnlvo-179" value="" style="ellipse;whiteSpace=wrap;html=1;aspect=fixed;fillColor=#f8cecc;strokeColor=#b85450;" vertex="1" parent="1">
          <mxGeometry x="270" y="430" width="20" height="20" as="geometry" />
        </mxCell>
        <mxCell id="iNCdmygWWekqGMJKnlvo-180" style="edgeStyle=orthogonalEdgeStyle;rounded=0;orthogonalLoop=1;jettySize=auto;html=1;exitX=0.5;exitY=0;exitDx=0;exitDy=0;entryX=0.5;entryY=1;entryDx=0;entryDy=0;strokeWidth=2;" edge="1" parent="1" source="iNCdmygWWekqGMJKnlvo-182" target="iNCdmygWWekqGMJKnlvo-185">
          <mxGeometry relative="1" as="geometry" />
        </mxCell>
        <mxCell id="iNCdmygWWekqGMJKnlvo-181" style="edgeStyle=orthogonalEdgeStyle;rounded=0;orthogonalLoop=1;jettySize=auto;html=1;strokeWidth=2;" edge="1" parent="1" source="iNCdmygWWekqGMJKnlvo-182">
          <mxGeometry relative="1" as="geometry">
            <mxPoint x="370" y="560" as="targetPoint" />
          </mxGeometry>
        </mxCell>
        <mxCell id="iNCdmygWWekqGMJKnlvo-182" value="" style="ellipse;whiteSpace=wrap;html=1;aspect=fixed;fillColor=#ffe6cc;strokeColor=#d79b00;" vertex="1" parent="1">
          <mxGeometry x="320" y="550" width="20" height="20" as="geometry" />
        </mxCell>
        <mxCell id="iNCdmygWWekqGMJKnlvo-183" style="edgeStyle=orthogonalEdgeStyle;rounded=0;orthogonalLoop=1;jettySize=auto;html=1;strokeWidth=2;" edge="1" parent="1" source="iNCdmygWWekqGMJKnlvo-185" target="iNCdmygWWekqGMJKnlvo-188">
          <mxGeometry relative="1" as="geometry" />
        </mxCell>
        <mxCell id="iNCdmygWWekqGMJKnlvo-184" style="edgeStyle=orthogonalEdgeStyle;rounded=0;orthogonalLoop=1;jettySize=auto;html=1;exitX=1;exitY=0.5;exitDx=0;exitDy=0;strokeWidth=2;" edge="1" parent="1" source="iNCdmygWWekqGMJKnlvo-185">
          <mxGeometry relative="1" as="geometry">
            <mxPoint x="370" y="500" as="targetPoint" />
          </mxGeometry>
        </mxCell>
        <mxCell id="iNCdmygWWekqGMJKnlvo-185" value="" style="ellipse;whiteSpace=wrap;html=1;aspect=fixed;fillColor=#d5e8d4;strokeColor=#82b366;" vertex="1" parent="1">
          <mxGeometry x="320" y="490" width="20" height="20" as="geometry" />
        </mxCell>
        <mxCell id="iNCdmygWWekqGMJKnlvo-186" style="edgeStyle=orthogonalEdgeStyle;rounded=0;orthogonalLoop=1;jettySize=auto;html=1;entryX=0.5;entryY=1;entryDx=0;entryDy=0;strokeWidth=2;" edge="1" parent="1" source="iNCdmygWWekqGMJKnlvo-188" target="iNCdmygWWekqGMJKnlvo-190">
          <mxGeometry relative="1" as="geometry" />
        </mxCell>
        <mxCell id="iNCdmygWWekqGMJKnlvo-187" style="edgeStyle=orthogonalEdgeStyle;rounded=0;orthogonalLoop=1;jettySize=auto;html=1;strokeWidth=2;" edge="1" parent="1" source="iNCdmygWWekqGMJKnlvo-188">
          <mxGeometry relative="1" as="geometry">
            <mxPoint x="370" y="440" as="targetPoint" />
          </mxGeometry>
        </mxCell>
        <mxCell id="iNCdmygWWekqGMJKnlvo-188" value="" style="ellipse;whiteSpace=wrap;html=1;aspect=fixed;fillColor=#f8cecc;strokeColor=#b85450;" vertex="1" parent="1">
          <mxGeometry x="320" y="430" width="20" height="20" as="geometry" />
        </mxCell>
        <mxCell id="iNCdmygWWekqGMJKnlvo-189" style="edgeStyle=orthogonalEdgeStyle;rounded=0;orthogonalLoop=1;jettySize=auto;html=1;strokeWidth=2;" edge="1" parent="1" source="iNCdmygWWekqGMJKnlvo-190">
          <mxGeometry relative="1" as="geometry">
            <mxPoint x="370" y="380" as="targetPoint" />
          </mxGeometry>
        </mxCell>
        <mxCell id="iNCdmygWWekqGMJKnlvo-190" value="" style="ellipse;whiteSpace=wrap;html=1;aspect=fixed;fillColor=#dae8fc;strokeColor=#6c8ebf;" vertex="1" parent="1">
          <mxGeometry x="320" y="370" width="20" height="20" as="geometry" />
        </mxCell>
        <mxCell id="iNCdmygWWekqGMJKnlvo-191" style="edgeStyle=orthogonalEdgeStyle;rounded=0;orthogonalLoop=1;jettySize=auto;html=1;strokeWidth=2;" edge="1" parent="1" source="iNCdmygWWekqGMJKnlvo-193" target="iNCdmygWWekqGMJKnlvo-182">
          <mxGeometry relative="1" as="geometry" />
        </mxCell>
        <mxCell id="iNCdmygWWekqGMJKnlvo-192" style="edgeStyle=orthogonalEdgeStyle;rounded=0;orthogonalLoop=1;jettySize=auto;html=1;exitX=1;exitY=0.5;exitDx=0;exitDy=0;strokeWidth=2;" edge="1" parent="1" source="iNCdmygWWekqGMJKnlvo-193">
          <mxGeometry relative="1" as="geometry">
            <mxPoint x="370" y="620" as="targetPoint" />
          </mxGeometry>
        </mxCell>
        <mxCell id="iNCdmygWWekqGMJKnlvo-193" value="" style="ellipse;whiteSpace=wrap;html=1;aspect=fixed;fillColor=#cdeb8b;strokeColor=#36393d;" vertex="1" parent="1">
          <mxGeometry x="320" y="610" width="20" height="20" as="geometry" />
        </mxCell>
        <mxCell id="iNCdmygWWekqGMJKnlvo-194" style="edgeStyle=orthogonalEdgeStyle;rounded=0;orthogonalLoop=1;jettySize=auto;html=1;entryX=0;entryY=0.5;entryDx=0;entryDy=0;strokeWidth=2;" edge="1" parent="1" source="iNCdmygWWekqGMJKnlvo-195" target="iNCdmygWWekqGMJKnlvo-173">
          <mxGeometry relative="1" as="geometry" />
        </mxCell>
        <mxCell id="iNCdmygWWekqGMJKnlvo-195" value="" style="ellipse;whiteSpace=wrap;html=1;aspect=fixed;" vertex="1" parent="1">
          <mxGeometry x="210" y="550" width="20" height="20" as="geometry" />
        </mxCell>
        <mxCell id="iNCdmygWWekqGMJKnlvo-196" style="edgeStyle=orthogonalEdgeStyle;rounded=0;orthogonalLoop=1;jettySize=auto;html=1;entryX=0;entryY=0.5;entryDx=0;entryDy=0;strokeWidth=2;" edge="1" parent="1" source="iNCdmygWWekqGMJKnlvo-197" target="iNCdmygWWekqGMJKnlvo-176">
          <mxGeometry relative="1" as="geometry" />
        </mxCell>
        <mxCell id="iNCdmygWWekqGMJKnlvo-197" value="" style="ellipse;whiteSpace=wrap;html=1;aspect=fixed;" vertex="1" parent="1">
          <mxGeometry x="210" y="490" width="20" height="20" as="geometry" />
        </mxCell>
        <mxCell id="iNCdmygWWekqGMJKnlvo-198" style="edgeStyle=orthogonalEdgeStyle;rounded=0;orthogonalLoop=1;jettySize=auto;html=1;entryX=0;entryY=0.5;entryDx=0;entryDy=0;strokeWidth=2;" edge="1" parent="1" source="iNCdmygWWekqGMJKnlvo-199" target="iNCdmygWWekqGMJKnlvo-179">
          <mxGeometry relative="1" as="geometry" />
        </mxCell>
        <mxCell id="iNCdmygWWekqGMJKnlvo-199" value="" style="ellipse;whiteSpace=wrap;html=1;aspect=fixed;" vertex="1" parent="1">
          <mxGeometry x="210" y="430" width="20" height="20" as="geometry" />
        </mxCell>
        <mxCell id="iNCdmygWWekqGMJKnlvo-210" style="edgeStyle=orthogonalEdgeStyle;rounded=0;orthogonalLoop=1;jettySize=auto;html=1;exitX=1;exitY=0.5;exitDx=0;exitDy=0;entryX=0;entryY=0.5;entryDx=0;entryDy=0;strokeWidth=2;" edge="1" parent="1" source="iNCdmygWWekqGMJKnlvo-201" target="iNCdmygWWekqGMJKnlvo-209">
          <mxGeometry relative="1" as="geometry" />
        </mxCell>
        <mxCell id="iNCdmygWWekqGMJKnlvo-201" value="" style="ellipse;whiteSpace=wrap;html=1;aspect=fixed;" vertex="1" parent="1">
          <mxGeometry x="210" y="370" width="20" height="20" as="geometry" />
        </mxCell>
        <mxCell id="iNCdmygWWekqGMJKnlvo-215" style="edgeStyle=orthogonalEdgeStyle;rounded=0;orthogonalLoop=1;jettySize=auto;html=1;entryX=0;entryY=0.5;entryDx=0;entryDy=0;strokeWidth=2;" edge="1" parent="1" source="iNCdmygWWekqGMJKnlvo-203" target="iNCdmygWWekqGMJKnlvo-208">
          <mxGeometry relative="1" as="geometry" />
        </mxCell>
        <mxCell id="iNCdmygWWekqGMJKnlvo-203" value="" style="ellipse;whiteSpace=wrap;html=1;aspect=fixed;" vertex="1" parent="1">
          <mxGeometry x="210" y="610" width="20" height="20" as="geometry" />
        </mxCell>
        <mxCell id="iNCdmygWWekqGMJKnlvo-216" style="edgeStyle=orthogonalEdgeStyle;rounded=0;orthogonalLoop=1;jettySize=auto;html=1;exitX=1;exitY=0.5;exitDx=0;exitDy=0;entryX=0;entryY=0.5;entryDx=0;entryDy=0;strokeWidth=2;" edge="1" parent="1" source="iNCdmygWWekqGMJKnlvo-208" target="iNCdmygWWekqGMJKnlvo-193">
          <mxGeometry relative="1" as="geometry" />
        </mxCell>
        <mxCell id="iNCdmygWWekqGMJKnlvo-208" value="" style="ellipse;whiteSpace=wrap;html=1;aspect=fixed;fillColor=#cdeb8b;strokeColor=#36393d;" vertex="1" parent="1">
          <mxGeometry x="270" y="610" width="20" height="20" as="geometry" />
        </mxCell>
        <mxCell id="iNCdmygWWekqGMJKnlvo-211" style="edgeStyle=orthogonalEdgeStyle;rounded=0;orthogonalLoop=1;jettySize=auto;html=1;exitX=1;exitY=0.5;exitDx=0;exitDy=0;entryX=0;entryY=0.5;entryDx=0;entryDy=0;strokeWidth=2;" edge="1" parent="1" source="iNCdmygWWekqGMJKnlvo-209" target="iNCdmygWWekqGMJKnlvo-190">
          <mxGeometry relative="1" as="geometry" />
        </mxCell>
        <mxCell id="iNCdmygWWekqGMJKnlvo-213" style="edgeStyle=orthogonalEdgeStyle;rounded=0;orthogonalLoop=1;jettySize=auto;html=1;exitX=0.5;exitY=1;exitDx=0;exitDy=0;entryX=0.5;entryY=0;entryDx=0;entryDy=0;strokeWidth=2;" edge="1" parent="1" source="iNCdmygWWekqGMJKnlvo-209" target="iNCdmygWWekqGMJKnlvo-179">
          <mxGeometry relative="1" as="geometry" />
        </mxCell>
        <mxCell id="iNCdmygWWekqGMJKnlvo-209" value="" style="ellipse;whiteSpace=wrap;html=1;aspect=fixed;fillColor=#dae8fc;strokeColor=#6c8ebf;" vertex="1" parent="1">
          <mxGeometry x="270" y="370" width="20" height="20" as="geometry" />
        </mxCell>
      </root>
    </mxGraphModel>
  </diagram>
</mxfile>
